Coordinates
version=1
nRows=9
nColumns=24
inDegrees=yes

Units are S.I. units (second, meters, Newtons, ...)
Angles are in degrees.

endheader
time	pelvis_tilt	pelvis_list	pelvis_rotation	pelvis_tx	pelvis_ty	pelvis_tz	hip_flexion_r	hip_adduction_r	hip_rotation_r	knee_angle_r	ankle_angle_r	subtalar_angle_r	mtp_angle_r	hip_flexion_l	hip_adduction_l	hip_rotation_l	knee_angle_l	ankle_angle_l	subtalar_angle_l	mtp_angle_l	lumbar_extension	lumbar_bending	lumbar_rotation
      1.42083333	      1.06468281	      1.05885602	     -2.70247057	      0.52539870	      1.09204556	      0.27028576	     12.49853670	     -4.69307265	     -7.72848565	    -59.84821236	      4.07811988	     -5.69605949	      5.28201632	      5.02915525	      3.59355572	      0.57544585	    -12.56129103	      6.86574137	      1.49942224	      2.27724452	    -12.59822944	     -3.47923003	     -2.33225694
      1.42500000	      1.06233317	      0.94576414	     -2.59161316	      0.53032053	      1.09269297	      0.26984413	     12.90336697	     -4.54460868	     -7.83210755	    -59.16974801	      4.36233353	     -5.53775153	      5.34239520	      4.55303687	      3.50178847	      0.67724112	    -12.17239392	      6.86873395	      1.53999985	      2.27475380	    -12.58379363	     -3.30835598	     -2.44492978
      1.42916667	      1.06502124	      0.85386837	     -2.47621087	      0.53523126	      1.09329180	      0.26938063	     13.29928901	     -4.43065545	     -7.94924158	    -58.47662843	      4.64052744	     -5.37126295	      5.43853643	      4.06055861	      3.43918612	      0.83635332	    -11.75424247	      6.88975679	      1.51404508	      2.27040156	    -12.57827853	     -3.13149029	     -2.65572708
      1.43333333	      1.02951365	      0.75116780	     -2.37426849	      0.54013669	      1.09376807	      0.26896059	     13.73200643	     -4.29296772	     -8.04288208	    -57.75573457	      4.89382162	     -5.30812699	      5.46905809	      3.63084862	      3.35197666	      0.90869161	    -11.37945546	      6.91095852	      1.58871533	      2.26941835	    -12.52417579	     -2.95947724	     -2.70352937
      1.43750000	      1.03986953	      0.65695521	     -2.24832087	      0.54500758	      1.09427476	      0.26849814	     14.09726719	     -4.17997478	     -8.16955324	    -56.99763660	      5.14670104	     -5.16229924	      5.54458699	      3.14759588	      3.28401602	      1.07858285	    -10.99336925	      6.95178977	      1.54047725	      2.26476551	    -12.53020016	     -2.79303905	     -2.93062354
      1.44166667	      0.99557196	      0.56076866	     -2.14580057	      0.54989221	      1.09464049	      0.26809642	     14.52215262	     -4.04952538	     -8.25889505	    -56.22445444	      5.38631267	     -5.14718561	      5.57117743	      2.73591005	      3.20097423	      1.15831686	    -10.63137786	      6.97606052	      1.60328149	      2.26338156	    -12.47033997	     -2.63166394	     -2.98450671
      1.44583333	      0.96549844	      0.47061948	     -2.03585446	      0.55475595	      1.09497765	      0.26768355	     14.92074542	     -3.93222213	     -8.35869068	    -55.42452812	      5.61067052	     -5.12129224	      5.59681294	      2.31300331	      3.12628776	      1.26256762	    -10.27520058	      7.02708321	      1.63518489	      2.26220293	    -12.43112468	     -2.47412773	     -3.08101007
      1.45000000	      0.95427330	      0.38398651	     -1.90467907	      0.55958889	      1.09529092	      0.26724885	     15.28342074	     -3.82567160	     -8.47829275	    -54.59032253	      5.79673448	     -5.10272563	      5.65508809	      1.86893542	      3.06123531	      1.46304562	     -9.91480773	      7.07337368	      1.52931996	      2.25635671	    -12.40815679	     -2.31858429	     -3.35573640
      1.45416667	      0.91557125	      0.30968760	     -1.81042044	      0.56441981	      1.09549850	      0.26689810	     15.68322586	     -3.71945103	     -8.55287286	    -53.75815431	      6.02579925	     -5.14078587	      5.67278602	      1.46721434	      2.99704490	      1.53632939	     -9.57615068	      7.11797383	      1.58578443	      2.25546678	    -12.36332037	     -2.19022930	     -3.39705889
